<?xml version="1.0" encoding="utf-8"?>
<!-- Generator: Adobe Illustrator 23.0.2, SVG Export Plug-In . SVG Version: 6.00 Build 0)  -->
<svg version="1.1" id="Layer_1" xmlns="http://www.w3.org/2000/svg" xmlns:xlink="http://www.w3.org/1999/xlink" x="0px" y="0px"
	 width="196px" height="196px" viewBox="0 0 196 196" style="enable-background:new 0 0 196 196;" xml:space="preserve">
<style type="text/css">
	.st0{fill:#FFFFFF;}
</style>
<g>
	<path class="st0" d="M66,152c-6.6,0-12-5.4-12-12V56c0-6.6,5.4-12,12-12h64c6.6,0,12,5.4,12,12v84c0,6.6-5.4,12-12,12H66z M66,140
		h64V76.5L109.5,56L66,56L66,140z"/>
	<path d="M130,46c5.5,0,10,4.5,10,10v84c0,5.5-4.5,10-10,10H66c-5.5,0-10-4.5-10-10V56c0-5.5,4.5-10,10-10H130 M66,142h64
		c1.1,0,2-0.9,2-2V76.5c0-0.5-0.2-1-0.6-1.4l-20.5-20.5c-0.4-0.4-0.9-0.6-1.4-0.6H66c-1.1,0-2,0.9-2,2v84C64,141.1,64.9,142,66,142
		 M130,42H66c-7.7,0-14,6.3-14,14v84c0,7.7,6.3,14,14,14h64c7.7,0,14-6.3,14-14V56C144,48.3,137.7,42,130,42L130,42z M68,58h40.6
		L128,77.4V138H68V58L68,58z"/>
</g>
<g>
	<path class="st0" d="M66,152c-6.6,0-12-5.4-12-12V56c0-6.6,5.4-12,12-12h64c6.6,0,12,5.4,12,12v84c0,6.6-5.4,12-12,12H66z M66,140
		h64V76.5L109.5,56L66,56L66,140z"/>
	<path d="M130,46c5.5,0,10,4.5,10,10v84c0,5.5-4.5,10-10,10H66c-5.5,0-10-4.5-10-10V56c0-5.5,4.5-10,10-10H130 M66,142h64
		c1.1,0,2-0.9,2-2V76.5c0-0.5-0.2-1-0.6-1.4l-20.5-20.5c-0.4-0.4-0.9-0.6-1.4-0.6H66c-1.1,0-2,0.9-2,2v84C64,141.1,64.9,142,66,142
		 M130,42H66c-7.7,0-14,6.3-14,14v84c0,7.7,6.3,14,14,14h64c7.7,0,14-6.3,14-14V56C144,48.3,137.7,42,130,42L130,42z M68,58h40.6
		L128,77.4V138H68V58L68,58z"/>
</g>
<g>
	<path class="st0" d="M116,128.1c-1.6,0-3.1-0.6-4.2-1.8L98,112.5l-13.8,13.7c-1.1,1.1-2.6,1.8-4.2,1.8c-1.4,0-2.8-0.5-4.1-1.5
		l-0.1-0.1l-0.1-0.1c-1.2-1.2-1.8-2.7-1.8-4.3s0.6-3.1,1.8-4.3L89.5,104L75.7,90.3c-1.2-1.2-1.8-2.7-1.8-4.3s0.6-3.1,1.8-4.3
		c1.2-1.2,2.7-1.8,4.3-1.8s3.1,0.6,4.3,1.8L98,95.5l13.8-13.8c1.2-1.2,2.7-1.8,4.3-1.8s3.1,0.6,4.3,1.8c2.4,2.4,2.4,6.1,0,8.5
		L106.5,104l13.7,13.8c1.1,1.1,1.8,2.7,1.8,4.3s-0.6,3.1-1.8,4.3C119.1,127.5,117.6,128.1,116,128.1z"/>
	<path d="M116.1,81.9c1,0,2,0.4,2.8,1.2c1.6,1.6,1.6,4.1,0,5.7L103.7,104l15.1,15.2c1.6,1.6,1.6,4.1,0,5.7c-0.8,0.8-1.8,1.2-2.8,1.2
		s-2-0.4-2.8-1.2L98,109.7l-15.2,15.1C82,125.6,81,126,80,126s-2-0.4-2.9-1.1c-1.6-1.6-1.6-4.1,0-5.7L92.3,104L77.1,88.9
		c-1.6-1.6-1.6-4.1,0-5.7c0.8-0.8,1.8-1.2,2.8-1.2c1,0,2.1,0.4,2.9,1.2L98,98.3l15.2-15.2C114,82.3,115,81.9,116.1,81.9 M116.1,77.9
		c-2.1,0-4.1,0.8-5.7,2.4L98,92.7L85.6,80.4c-1.5-1.5-3.5-2.4-5.7-2.4s-4.1,0.8-5.7,2.4c-1.5,1.5-2.4,3.5-2.4,5.7s0.8,4.1,2.4,5.7
		L86.6,104l-12.4,12.4c-1.5,1.5-2.4,3.5-2.4,5.7s0.8,4.1,2.4,5.7l0.2,0.2l0.2,0.2c1.6,1.3,3.5,1.9,5.4,1.9c2.1,0,4.1-0.8,5.6-2.4
		L98,115.3l12.4,12.4c1.5,1.5,3.5,2.4,5.6,2.4c2.1,0,4.1-0.8,5.6-2.4c1.5-1.5,2.4-3.5,2.4-5.7s-0.8-4.1-2.4-5.7L109.3,104l12.4-12.4
		c3.2-3.2,3.2-8.2,0-11.4C120.2,78.7,118.2,77.9,116.1,77.9L116.1,77.9z"/>
</g>
</svg>
