<?xml version="1.0" encoding="utf-8"?>
<!-- Generator: Adobe Illustrator 23.0.2, SVG Export Plug-In . SVG Version: 6.00 Build 0)  -->
<svg version="1.1" id="Layer_1" xmlns="http://www.w3.org/2000/svg" xmlns:xlink="http://www.w3.org/1999/xlink" x="0px" y="0px"
	 width="196px" height="196px" viewBox="0 0 196 196" style="enable-background:new 0 0 196 196;" xml:space="preserve">
<style type="text/css">
	.st0{fill:#FFFFFF;}
</style>
<g>
	<path class="st0" d="M54,146.9c-5.5,0-10-4.5-10-10v-80c0-4.4,3.6-8,8-8h33.6c2,0,4.1,0.9,5.6,2.4l6.5,6.5c0.9,1,2,1.2,2.8,1.2H144
		c4.4,0,8,3.6,8,8v69.9c0,5.5-4.5,10-10,10H54z M56,135h84V71l-84,0L56,135z"/>
	<path d="M85.6,50.9c1.5,0,3.1,0.7,4.2,1.8l6.5,6.5c1.1,1.2,2.6,1.8,4.2,1.8H144c3.3,0,6,2.7,6,6v69.9c0,4.4-3.6,8-8,8H54
		c-4.4,0-8-3.6-8-8v-80c0-3.3,2.7-6,6-6H85.6 M56,137h84c1.1,0,2-0.9,2-2V71c0-1.1-0.9-2-2-2H56c-1.1,0-2,0.9-2,2v64
		C54,136.1,54.9,137,56,137 M85.6,46.9H52c-5.5,0-10,4.5-10,10v80c0,6.6,5.4,12,12,12h88c6.6,0,12-5.4,12-12V67c0-5.5-4.5-10-10-10
		h-43.5c-0.5,0-0.9-0.2-1.3-0.5l-0.1-0.1l-0.1-0.1l-6.5-6.5C90.8,48,88.1,46.9,85.6,46.9L85.6,46.9z M58,73h80v60H58V73L58,73z"/>
</g>
</svg>
